<?xml version="1.0"?>
<svg xmlns="http://www.w3.org/2000/svg" xmlns:xlink="http://www.w3.org/1999/xlink" xmlns:svgjs="http://svgjs.com/svgjs" version="1.1" width="512" height="512" x="0" y="0" viewBox="0 0 512 512" style="enable-background:new 0 0 512 512" xml:space="preserve" class=""><g><linearGradient xmlns="http://www.w3.org/2000/svg" id="SVGID_1_" gradientUnits="userSpaceOnUse" x1="256" x2="256" y1="451" y2="0"><stop stop-opacity="1" stop-color="#0bbf8c" offset="0"/><stop stop-opacity="1" stop-color="#0ff2b2" offset="1"/></linearGradient><linearGradient xmlns="http://www.w3.org/2000/svg" id="SVGID_2_" gradientUnits="userSpaceOnUse" x1="286" x2="286" y1="512" y2="61"><stop stop-opacity="1" stop-color="#9cefd8" offset="0"/><stop stop-opacity="1" stop-color="#c7f9eb" offset="1"/></linearGradient><g xmlns="http://www.w3.org/2000/svg"><g><g><path d="m256 0c-124.072 0-225 101.928-225 226s100.928 225 225 225c25.078 0 79.169-4.186 101.682-11.838l10.093-18.162c67.542-38.871 113.225-111.628 113.225-195 0-124.072-100.928-226-225-226z" fill="url(#SVGID_1_)" data-original="url(#SVGID_1_)" style=""/></g></g><g><g><path d="m241 226c0 8.284 6.716 15 15 15s15-6.716 15-15-6.716-15-15-15-15 6.716-15 15zm15-75c24.814 0 45-20.186 45-45s-20.186-45-45-45-45 20.186-45 45 20.186 45 45 45zm120 120c24.814 0 45-20.186 45-45s-20.186-45-45-45-45 20.186-45 45 20.186 45 45 45zm30 150h-38.225c-32.974 18.975-71.074 30-111.775 30h150c24.814 0 45 21.186 45 46 0 8.291 6.709 15 15 15s15-6.709 15-15c0-41.353-33.647-76-75-76zm-105-75c0-24.814-20.186-45-45-45s-45 20.186-45 45 20.186 45 45 45 45-20.186 45-45zm-165-165c-24.814 0-45 20.186-45 45s20.186 45 45 45 45-20.186 45-45-20.186-45-45-45z" fill="url(#SVGID_2_)" data-original="url(#SVGID_2_)" style=""/></g></g></g></g></svg>
